<?xml version="1.0" standalone="no"?>
<!DOCTYPE svg PUBLIC "-//W3C//DTD SVG 1.1//EN" "http://www.w3.org/Graphics/SVG/1.1/DTD/svg11.dtd" >
<svg xmlns="http://www.w3.org/2000/svg">
<metadata></metadata>
<defs>
<font id="webfontregular" horiz-adv-x="0" >
<font-face units-per-em="4096" ascent="3276" descent="-820" />
<missing-glyph horiz-adv-x="1024" />
<glyph />
<glyph />
<glyph />
<glyph unicode="&#x9;" />
<glyph unicode="&#xa0;" />
<glyph unicode="&#xd;" />
<glyph unicode=" "  horiz-adv-x="1024" />
<glyph unicode="&#x09;" horiz-adv-x="1024" />
<glyph unicode="&#xa0;" horiz-adv-x="1024" />
<glyph unicode="!" horiz-adv-x="1470" d="M438 377q99 16 451 53q0 -8 12 -221l12 -209l-458 -66q0 394 -17 443zM471 2830q45 9 225 29q176 16 344 45q-209 -1069 -303 -2113q-24 0 -168 -46v70v254q-4 102 -8 225l-33 848q-32 512 -57 688z" />
<glyph unicode="&#x22;" />
<glyph unicode="#" />
<glyph unicode="$" horiz-adv-x="2175" d="M176 -57q4 41 25 426q16 319 16 430v41l86 -17q16 -221 16 -303q111 -172 345 -270l127 1200q-439 213 -455 680q8 250 160 442q147 193 409 246q8 98 17 365q8 262 8 299l180 28q-45 -368 -61 -680q12 4 28 9h74h78q20 -5 37 -9q12 152 20 279t25 373l200 28 q-69 -303 -110 -692q45 0 151 -29q107 -28 152 -53q33 131 33 143l94 17q-53 -320 -53 -807l-99 33v245q-28 119 -135 209q-110 86 -160 86q-20 -286 -45 -528q-24 -242 -45 -532q303 -193 410 -377q94 -168 94 -406v-57q-33 -336 -254 -492q-225 -159 -393 -184 q-25 -479 -41 -725l-188 -33q24 172 45 328q16 156 49 418q-66 0 -119 -8q-41 8 -115 8q-24 -275 -41 -443q-20 -168 -28 -262l-201 -41q45 107 135 754q-221 33 -344 102l-33 -217zM606 2273q0 -258 217 -377q25 246 41 451q17 201 33 332q-106 -8 -201 -139 q-90 -123 -90 -246v-21zM799 217q65 0 123 -8q57 8 73 8h29q29 279 49 488q21 208 53 552l-204 111q-25 -102 -123 -1151zM950 1798l217 -110l90 1015q-16 4 -45 9h-102h-70zM1159 242h8q25 0 99 41q86 45 159 139q74 94 86 233q5 41 5 78q0 164 -74 262q-94 119 -185 181z " />
<glyph unicode="%" horiz-adv-x="3138" d="M209 2105v49q0 320 197 508q208 201 483 209q328 0 475 -164q147 -163 147 -442q-4 -229 -110 -389q-111 -160 -275 -246q-151 -78 -303 -78h-32q-304 13 -439 172q-135 160 -143 381zM512 2257q8 -221 94 -406q82 -180 258 -180h8q132 4 205 94q70 90 99 201 q24 107 24 184q-8 226 -86 418q-78 193 -266 193q-143 -4 -205 -78q-61 -74 -86 -193q-25 -118 -45 -233zM594 -25q123 168 876 1487q754 1315 787 1409l319 8q-98 -118 -409 -626q-316 -508 -660 -1127q-348 -618 -585 -1126zM1622 614q12 316 221 508q205 189 475 189 q312 0 467 -160q144 -156 144 -418v-28q-9 -308 -205 -504q-197 -201 -483 -201q-345 0 -480 193q-139 192 -139 421zM1937 770q0 -217 78 -434q78 -221 275 -225q8 8 12 8h4q168 4 250 168q70 147 70 303v33q-17 241 -103 417q-82 160 -242 160h-24q-283 -12 -320 -430z " />
<glyph unicode="&#x26;" horiz-adv-x="3334" d="M250 672q4 254 213 483t528 340q-438 401 -463 754q9 41 9 78q12 155 135 299q119 139 311 225q193 86 401 86h25q201 0 377 -66q184 -73 295 -213q110 -139 110 -299q0 -262 -196 -442q-197 -184 -525 -356q160 -177 308 -328q147 -156 315 -320q164 -168 274 -282 q82 127 148 368q49 189 49 344q0 41 -4 82q-221 37 -319 37l-33 90q102 -4 569 -24q356 12 463 24l-33 -90q-291 -37 -295 -45q-57 -307 -164 -491q-110 -189 -270 -406q135 -135 262 -258t230 -217q98 -94 135 -111l-201 -53q-221 111 -614 422q-181 -168 -459 -266 q-283 -103 -574 -103q-385 0 -684 193q-299 188 -323 545zM729 807q8 -25 8 -70q33 -295 254 -450q221 -160 443 -160q262 0 454 94q189 94 271 197q-136 94 -316 258q-184 164 -397 368q-213 201 -365 365q-331 -180 -352 -602zM938 2376q0 -148 94 -295q90 -152 209 -283 q119 -135 119 -143q221 119 336 295q110 172 110 340q0 200 -143 347.5t-344 147.5q-164 0 -270 -110q-111 -115 -111 -299z" />
<glyph unicode="'" horiz-adv-x="942" d="M201 2040q37 61 102 385q62 323 66 655q241 -78 376 -135q-61 -94 -241 -487.5t-193 -417.5h-110z" />
<glyph unicode="(" horiz-adv-x="1434" d="M307 1126q0 62 4 123q25 430 226 938q196 504 544 996l185 24q-254 -393 -414 -860t-164 -1044q0 -406 74 -758q69 -352 184 -602q115 -254 271 -463l-177 -25q-405 410 -577 852q-156 385 -156 819z" />
<glyph unicode=")" horiz-adv-x="1434" d="M160 -553q262 385 426 868q159 484 159 1004q0 471 -81 844q-82 368 -189 590q-110 221 -258 430l176 24q230 -217 398 -487q163 -275 253 -590q74 -279 74 -578v-82q-28 -909 -766 -1990z" />
<glyph unicode="*" horiz-adv-x="1679" d="M270 2433l123 397q58 -57 230 -196q172 -144 184 -148l-49 148q-53 143 -90 245q-37 103 -54 119l418 41q0 -8 -90 -270q-86 -250 -86 -275l8 -8q201 201 344 377l201 -369q-61 0 -262 -12q-205 -16 -266 -33q110 -73 286 -155q172 -86 185 -86l-303 -312 q-74 254 -209 521q-33 -82 -62 -295q-24 -189 -24 -221v-5l-402 193q41 25 221 172q181 143 226 188h-62q-82 0 -278 -8z" />
<glyph unicode="+" horiz-adv-x="1090" d="M438 377q99 16 451 53q0 -8 12 -221l12 -209l-458 -66q0 394 -17 443zM471 2830q45 9 225 29q176 16 344 45q-209 -1069 -303 -2113q-24 0 -168 -46v70v254q-4 102 -8 225l-33 848q-32 512 -57 688z" />
<glyph unicode="," horiz-adv-x="1311" d="M410 352q24 4 225 29q196 20 262 20v-249q0 -476 -160 -873l-131 -16q4 0 33 151q33 164 33 291q0 164 -49 238q-25 -4 -74 -4q-49 -5 -86 -5q-41 -4 -45 -8z" />
<glyph unicode="-" horiz-adv-x="1839" d="M287 1303l32 335h1242l-58 -196q-295 -4 -700 -53q-406 -54 -516 -86z" />
<glyph unicode="." horiz-adv-x="1311" d="M410 377q122 16 471 86q4 -49 12 -221t12 -217q-45 -9 -209 -37q-164 -33 -278 -54v218q-4 106 -8 225z" />
<glyph unicode="/" horiz-adv-x="2007" d="M16 -25q29 17 791 1352q762 1331 872 1544h312q-189 -270 -463 -729q-279 -459 -524.5 -901t-385.5 -713q-143 -270 -266 -528z" />
<glyph unicode="0" horiz-adv-x="2769" d="M225 1319v24q0 394 144 758q143 369 413 598q267 226 611 238h61q332 0 565 -164q254 -184 381 -471q123 -291 144 -606q4 -74 4 -144q0 -389 -131 -733q-156 -409 -439 -647q-286 -238 -618 -238h-41q-594 33 -840 442.5t-254 942.5zM684 1589q0 -49 4 -94 q29 -684 242 -1044q205 -357 504 -357h16q336 12 487 398q152 385 152 819q0 323 -74 663q-78 340 -246 578q-167 233 -434 233q-368 0 -516 -450q-135 -398 -135 -746z" />
<glyph unicode="1" horiz-adv-x="1896" d="M82 2601q561 160 1200 377q-41 -299 -57 -1729q16 -1040 32 -1114q107 -20 287 -37q176 -20 287 -32l16 -82q-229 8 -401 12q-176 0 -381 4q-836 -16 -979 -16l16 82q177 16 394 40q217 21 266 21q12 98 12 971q0 1380 -12 1503q-201 0 -651 -90q-21 41 -29 90z" />
<glyph unicode="2" horiz-adv-x="2367" d="M-25 0q201 152 484 369q282 213 508 450q225 238 360 504q135 262 135 573q0 340 -180 598q-180 259 -508 259q-262 0 -356 -111q-4 -21 -25 -131q-24 -115 -41 -213q-20 -98 -33 -156l-94 -12q78 500 86 1036l99 -28q24 -250 28 -259h-4q0 5 144 25q163 25 319 25 q311 0 573 -99q263 -98 385 -352q91 -176 91 -389q0 -307 -185 -619q-184 -311 -430 -557q-246 -245 -446.5 -401t-290.5 -217v-16q1089 24 1294 167q66 201 103 402l98 16q-8 -86 -66 -528q-57 -442 -69 -664l-90 25q-4 45 -4 82q-5 37 -9 102q-8 66 -12 103 q-688 16 -1200 16h-664z" />
<glyph unicode="3" horiz-adv-x="2376" d="M233 -217q17 53 46 377q24 319 24 561q86 -33 90 -41q0 -119 8 -217q9 -98 9 -127q176 -238 520 -250q299 12 508 209t209 487q0 181 -91 340q-90 156 -290.5 283t-528.5 205q549 594 824 934q-58 0 -99 -9h-413q-431 0 -545 -49q-33 -32 -74 -270l-94 -25q16 66 45 361 q25 291 45 606l86 -20q0 -250 8 -259q4 0 598 -16q418 8 602 8h353q-578 -626 -906 -1016q930 -241 930 -839q0 -336 -196 -582q-201 -246 -512 -377q-316 -131 -635 -131q-197 0 -369 49q-25 -36 -41 -106l-16 -70z" />
<glyph unicode="4" horiz-adv-x="2609" d="M-57 856q12 12 250 279q233 266 548 622q312 357 623 709q307 352 541 614q-41 -418 -41 -1970q32 4 143 16q107 9 201 33q90 21 102 49q17 66 49 193q29 127 41 217l94 4q-32 -209 -53 -475q-24 -270 -33 -483q9 -50 9 -111l-99 16q0 99 -20 271q-98 16 -434 16 q0 -643 24 -729q99 -16 266 -37q164 -20 173 -24l24 -91q-41 9 -774 25q-721 -16 -746 -25l17 91q229 24 360 36q131 13 242 25l8 340t12 389h-1527zM393 1118h1069v1225q-770 -852 -1069 -1225z" />
<glyph unicode="5" horiz-adv-x="2359" d="M160 -217q20 29 49 397q16 275 20 438q0 58 -4 103l94 -33q0 -115 17 -352q139 -238 504 -250q311 8 520 209t209 512q0 250 -152 438q-155 189 -426 311q-274 119 -598 164l119 1143h160q131 4 438 8q307 0 495.5 12.5t249.5 53.5q58 180 66 221l94 8q-53 -270 -90 -573 q-37 -307 -45 -463l-94 29v258v86q-90 32 -729 32q-185 9 -402 9q-32 -127 -77 -504q745 -94 1097 -365q348 -270 348 -635q0 -241 -114.5 -446t-311.5 -356q-196 -152 -430 -226q-237 -78 -462 -78q-177 0 -402 41q-45 -139 -53 -176z" />
<glyph unicode="6" horiz-adv-x="2585" d="M254 893q0 82 8 172q49 463 397 999q349 533 1037 992l225 8q-434 -352 -704 -721q-275 -369 -386 -729q-98 -311 -98 -627q0 -57 4 -115q17 -368 201 -573q180 -209 414 -217q151 0 278 86q123 86 193 254q49 119 49 258q0 53 -8 111q-29 274 -181 495 q-151 217 -585 266l53 95q143 16 270 16q377 4 607 -164q299 -225 299 -594q0 -282 -156 -504q-156 -225 -410 -344q-254 -123 -536 -123q-439 0 -725 279q-246 233 -246 680z" />
<glyph unicode="7" horiz-adv-x="2191" d="M201 1999q4 0 53 426q49 471 49 741l98 -12q0 -127 17 -258q74 -8 229 -12q152 -9 381 -13t426 -8q401 8 754 8q-955 -1876 -1127 -2744q111 -21 213 -33q103 -12 201 -28l16 -91q-53 9 -729 25q-147 -4 -274 -4q-127 -4 -283 -12l25 82q364 57 373 61 q163 397 478.5 1015.5t713.5 1360.5h-422q-799 0 -992 -62q-28 -53 -65 -225t-41 -176l-94 -33v-8z" />
<glyph unicode="8" horiz-adv-x="2519" d="M217 631q8 246 193 483q184 234 532 381q-303 143 -450 336q-140 184 -140 385v25q13 266 254 466q242 201 643 230q54 4 103 4q200 0 364 -53q201 -70 316 -193q114 -127 127 -278q4 -25 4 -50q0 -196 -148 -389q-168 -217 -512 -348q385 -151 574 -377 q188 -225 188 -479q0 -217 -127 -401q-131 -185 -356.5 -307.5t-495.5 -139.5h-82q-286 0 -495 78q-238 90 -361 254t-131 373zM655 713q9 -258 172 -443q160 -188 430 -188q271 0 414 156q144 151 144 368q0 340 -254 520q-91 78 -263 172q-176 91 -249 127 q-377 -262 -394 -712zM737 2343q8 -172 156 -340q147 -172 450 -299q193 82 295 246q99 164 99 340q0 139 -54 250q-53 110 -159.5 179.5t-274.5 73.5h-24q-197 0 -336 -118q-148 -131 -152 -332z" />
<glyph unicode="9" horiz-adv-x="2585" d="M233 1991q0 258 230 573q225 311 704 365q107 12 205 12q459 0 676 -258q262 -311 262 -709q-65 -1028 -1278 -2134h-69q-45 -4 -107 -8h-49q438 451 717 975q274 520 274 1048q0 447 -172 689q-172 233 -434 233h-16q-205 -12 -340.5 -172t-147.5 -405q-4 -33 -4 -66 q0 -299 164 -524q180 -254 577 -258q25 8 45 8l-53 -86q-37 -37 -307 -49q-348 8 -610 180q-267 168 -267 586z" />
<glyph unicode=":" horiz-adv-x="1311" d="M410 377q65 0 479 86q0 -17 8 -225.5t8 -212.5q-123 -25 -287 -54q-163 -28 -192 -37q0 37 -8 225.5t-8 217.5zM410 1577q24 4 180 37q155 28 299 57q0 -20 8 -225t8 -213q-471 -90 -479 -98q0 32 -8 224.5t-8 217.5z" />
<glyph unicode=";" horiz-adv-x="1311" d="M406 360q0 5 212 25q246 21 271 25q4 -37 8 -82v-185q0 -508 -160 -864l-131 -16q66 262 66 418q0 159 -49 253l-205 -8l-8 434h-4zM410 1577q262 57 462 86q0 -12 9 -86q4 -78 8 -160t8 -123v-69q-381 -62 -479 -90v233q-4 102 -8 209z" />
<glyph unicode="&#x3c;" />
<glyph unicode="=" />
<glyph unicode="&#x3e;" />
<glyph unicode="?" horiz-adv-x="2494" d="M377 2089q69 487 69 1102v139l99 -33l16 -458q279 90 623 90q229 0 454 -54q222 -53 381 -188q156 -139 156 -369q0 -270 -242 -532q-241 -262 -622 -426q-25 -4 -54 -119q-28 -115 -57 -270.5t-57 -290.5l-176 -41q-13 127 -37 283q-29 155 -58 364q799 328 799 889 q0 160 -69 307q-70 144 -197 230q-131 81 -295 81q-201 0 -369 -110q-172 -115 -213 -283l-16 -82q-8 -45 -12 -69q-8 -29 -29 -135zM848 -74v402q115 0 455 65q0 -69 24 -401q-430 -49 -479 -66z" />
<glyph unicode="@" />
<glyph unicode="A" horiz-adv-x="2920" d="M-233 -25l16 91q16 4 172 28q156 25 180 33q37 45 262 614q221 566 451 1176q229 606 311 827q-29 29 -319 58l-9 86q78 -4 213 -9q136 -8 381 -16q521 16 639 25l-8 -86q-274 -41 -311 -58q147 -467 348 -1020q201 -557 385 -1019.5t258 -577.5q4 -4 172 -29 q164 -24 180 -24l17 -90l-705 16q-90 -4 -237 -4q-148 -4 -271 -4q-123 -4 -163 -8l24 90q135 4 279 28l135 25q-17 66 -201 594q-188 524 -229 606q-426 0 -946 -45q-41 -90 -168 -598q-119 -475 -119 -549v-8q164 -53 344 -53l24 -90q-196 16 -544 16q-475 0 -561 -25z M840 1470q78 -4 385 -8q303 -8 479 -12q0 16 -90 283q-94 278 -189 553q-98 270 -139 393h-4q-16 -37 -74 -197q-57 -160 -139 -381t-147.5 -405.5t-81.5 -225.5z" />
<glyph unicode="B" horiz-adv-x="2802" d="M193 -16l16 82q49 0 221 24q168 21 201 37q33 0 33 1327q0 381 -9 815q-12 430 -24 475q-33 13 -414 41l-24 78q20 0 507 16q488 17 701 17q356 0 614 -107q258 -110 275 -405q4 -33 4 -66q0 -258 -180 -442q-205 -213 -459 -324v-8q282 -53 471 -176q184 -127 278 -291 q90 -168 90 -348q0 -192 -102 -369q-106 -176 -303 -282q-201 -107 -471 -111q-33 0 -279 8q-245 9 -684 17q-135 -8 -462 -8zM1106 1417q0 -987 45 -1233q147 -86 344 -98q225 0 385 131q160 127 160 377q0 233 -131 430q-135 197 -353 307q-180 90 -376 90q-37 0 -74 -4z M1106 1544q397 0 561 205q164 201 164 442q0 246 -152 422q-151 172 -397 172q-65 0 -164 -16q-4 -16 -4 -303q-4 -291 -4 -541q-4 -250 -4 -381z" />
<glyph unicode="C" horiz-adv-x="3314" d="M221 1425q0 336 180 664q205 373 643 610q435 238 1053 238q414 0 856 -107l78 361l98 16q-24 -123 -57 -647q-33 -475 -33 -594v-20l-94 28q0 156 -25 344q-24 82 -188 209t-414 209q-184 57 -372 57q-70 0 -140 -8q-581 -65 -839 -426q-254 -352 -254 -725v-24 q12 -459 233 -795q217 -340 574 -512q352 -176 778 -184q491 12 909 233l-53 -176q-205 -119 -496 -184q-295 -66 -626 -66q-701 0 -1221 340q-524 336 -586 1053q-4 53 -4 106z" />
<glyph unicode="D" horiz-adv-x="3846" d="M193 -16l16 82q274 28 438 61q17 655 17 1249q0 439 -5 672q-4 233 -20 688q-66 25 -438 66l-8 77q147 -4 270 -4q119 -4 291 -12q254 4 458 8h508h414q451 0 803 -159q348 -160 536 -435q185 -278 185 -598q0 -520 -299 -897q-299 -376 -774.5 -573t-991.5 -217 q-1056 0 -1400 -8zM1126 1282q17 -721 33 -1057q209 -69 479 -82q643 9 1110 426q398 357 398 885q0 86 -8 176q-33 271 -148 471q-119 201 -319 344q-201 140 -476 213q-274 70 -610 70q-201 0 -418 -25q-28 -749 -41 -1421z" />
<glyph unicode="E" horiz-adv-x="2609" d="M193 -25l24 91q275 20 422 53q25 1106 25 1491q0 622 -25 1126q-123 29 -430 66l-16 77q208 -4 389 -4q180 -4 499 -12q992 16 1049 33q4 4 16 82q8 78 13 110l98 17q-21 -135 -49 -492q-33 -356 -41 -364l8 8l-86 33v286q-33 74 -360 127q-328 50 -570 50 q-4 -132 -8 -320q-8 -192 -12 -385q-4 -197 -4 -471q704 20 847 70q33 94 41 176l91 8q-13 -53 -62 -401q-53 -349 -53 -365l-78 33q4 0 8 24q0 29 4 78q0 49 4 107v61q-184 94 -802 94q0 -86 -9 -151q4 -189 21 -570q12 -385 12 -630q774 12 983 147q29 74 90 356l95 25 q-111 -594 -136 -942l-86 16v246q-37 12 -331 25q-299 8 -861 16q-569 -16 -720 -25z" />
<glyph unicode="F" horiz-adv-x="2609" d="M193 -25l16 91q0 4 209 24q205 21 229 37q17 1286 17 1393q0 233 -17 1224q-172 29 -430 58l-24 77l1007 -16q979 16 1016 25q8 32 33 155q20 123 24 131l86 25q-24 -111 -45 -500q-24 -393 -24 -508l-99 33q0 262 -16 328q-66 82 -426 139q-360 53 -582 53 q-28 -258 -41 -966q9 -82 9 -226q671 0 864 66l57 237l86 9q-20 -168 -41 -484q-20 -315 -20 -430l-90 25q0 86 -25 344q-24 29 -180 57q-160 29 -340 41q-135 8 -242 8h-69q0 -929 32 -1306q33 -4 136 -17q102 -12 176 -20q69 -12 139 -16l12 -91l-622 17q-119 -4 -308 -4 q-188 -4 -335 -4q-148 -4 -172 -9z" />
<glyph unicode="G" horiz-adv-x="3703" d="M225 1368v41q0 332 172 672q185 360 615 606q430 242 1093 242q402 0 893 -99q74 353 74 377l94 25q-16 -107 -37 -459q-20 -352 -24 -614q8 -70 8 -193l-98 49q0 160 -45 369q-103 127 -263 217q-159 90 -348 139q-192 45 -405 45q-553 0 -856 -299q-373 -344 -385 -868 q4 -401 205 -754q196 -352 532 -565q332 -213 725 -225q197 4 377 57q143 41 143 49q0 4 -8 4q16 205 16 471q0 275 -16 480q-45 4 -201 24q-159 17 -213 25l-24 82q139 0 737 -17q442 17 573 17l-16 -82q-143 -8 -360 -49q-9 -33 -25 -471q16 -558 16 -598 q-626 -140 -1093 -140q-623 0 -1041 209q-422 205 -614 533q-193 323 -201 700z" />
<glyph unicode="H" horiz-adv-x="3969" d="M193 -16l24 82q254 24 430 61q8 418 8 1208q0 946 -8 1401q-115 37 -422 57l-32 95q81 0 167 -4.5t177 -4.5q86 -4 176 -8t176 -8q602 16 696 25l-24 -86q-91 -9 -242.5 -37.5t-159.5 -28.5q-24 -405 -24 -1143h225h287h553q208 9 630 9v430q0 393 -20 712 q-107 17 -189 33q-81 12 -213 25l-24 86q33 -9 672 -25q303 8 438 12q135 0 274 4l-24 -77q-123 -21 -414 -58q-16 -323 -33 -1335q8 -430 17 -704q4 -275 12 -439q4 -143 8 -143v4q103 -25 225 -37q123 -12 193 -24l25 -82q-54 4 -189 8q-135 0 -291 4q-159 0 -258 4 q-172 -4 -319 -4q-148 -4 -336 -12l24 82q304 36 402 61q20 168 20 1327q-143 0 -901 -37q-758 -41 -803 -57q4 -127 9 -393q0 -267 12 -488q12 -225 20 -360q66 -13 402 -53l16 -91q-49 5 -704 25q-201 -4 -377 -4q-180 -4 -311 -12z" />
<glyph unicode="I" horiz-adv-x="1798" d="M193 -16l16 82q24 4 70 8q40 4 184 24q143 21 184 29q17 287 17 1192q0 827 -17 1417q-45 17 -430 66l-24 77q118 0 213 -4q90 -4 245 -8q152 -4 381 -12q389 16 578 24l-25 -86l-434 -57q-8 -70 -25 -1007q4 -250 8.5 -500t8.5 -459q0 -213 4 -389q4 -180 4 -254 q78 -16 246 -37q164 -24 188 -24l25 -82q-58 4 -197 8q-139 0 -303 4q-164 0 -262 4q-94 -4 -238 -4q-147 -4 -266 -4q-119 -4 -151 -8z" />
<glyph unicode="J" horiz-adv-x="1720" d="M86 2879q217 -4 401 -4q181 -4 435 -12q270 8 401 12q127 0 279 4l-9 -77l-184 -25q-197 -29 -258 -33q-8 -225 -12 -614t-13 -905q0 -922 -8 -1008q-33 -287 -205 -569q-172 -287 -680 -656l-81 33q217 270 294 389q78 115 140 344q57 230 69 643q17 521 17 1303 q0 709 -25 1032q-246 37 -545 66z" />
<glyph unicode="K" horiz-adv-x="3281" d="M193 -16l16 82q418 49 438 61q17 418 17 999q0 570 -5 889q-4 316 -20 729q-86 9 -430 58l-16 77q172 -4 315 -4q143 -4 381 -12q246 8 389 12q139 0 307 4l-8 -77q-156 -21 -287 -37q-135 -21 -139 -37q-8 -197 -25 -1487q9 -471 17 -745q4 -275 8 -353q61 -37 471 -77 l8 -91q-53 5 -672 25q-704 -16 -765 -16zM1126 1319v192q353 295 807 701q455 405 525 532q-263 49 -316 58q0 4 -12 77q106 0 582 -16q53 4 151 8q94 0 189 4q94 0 147 4l-33 -77q-147 -25 -254 -49q-213 -127 -1114 -889q107 -181 705 -934q594 -754 839 -1004l-135 -45 q-123 45 -450 336q-328 287 -766 725q-443 434 -598 594q-54 -33 -140 -106q-90 -78 -127 -111z" />
<glyph unicode="L" horiz-adv-x="2417" d="M193 -16l16 82q315 24 438 53q8 217 8 1163q0 1204 -8 1462q-74 9 -176 25q-106 16 -262 33l-16 77q188 -4 344 -4q155 -4 376 -12q287 8 430 12q144 0 312 4l-17 -77q-196 -25 -266 -37q-69 -12 -221 -29q-8 -61 -25 -1225q9 -696 17 -1040q4 -344 8 -344h33 q315 0 561 66q262 65 389 151q57 139 147 455l103 24q-41 -110 -123 -622q-86 -516 -94 -729l-94 24q0 74 8 233.5t8 245.5q-160 5 -324 9q-168 0 -344 4q-180 4 -356 8t-336 4q-156 -4 -287 -4q-135 -4 -249 -12z" />
<glyph unicode="M" horiz-adv-x="4346" d="M-8 -16l33 82q20 8 122 24q99 12 164 29q45 131 283 1159q233 1024 319 1466q-151 0 -409 58l-25 77q119 -4 234 -4q114 -4 368 -12q271 8 381 12q111 0 226 4l-17 -77q-41 -4 -164 -33q-110 -25 -139 -25h-8q156 -475 450 -1257q287 -766 304 -766q28 45 380 889 q353 839 451 1126q-111 45 -283 57l-16 86q152 -4 283 -4q131 -4 336 -12q221 8 311 12q90 0 192 4l-16 -86h-4q-37 0 -340 -49q74 -344 233 -1159q156 -815 312 -1458q53 -21 336 -61l24 -91q-98 9 -680 25q-500 -16 -663 -16l16 82q94 16 229 28q131 12 217 25 q0 61 -41 274q-40 213 -180 946q-139 734 -196 1078h-17l-1036 -2458q-123 320 -324 840q-204 516 -315 819q-115 299 -299 807h-16q-336 -1798 -344 -2216l16 -82q74 -21 360 -61l17 -82q-78 0 -627 16q-119 -4 -221 -4q-103 -4 -217 -12z" />
<glyph unicode="N" horiz-adv-x="3719" d="M160 -16l16 82q25 4 164 24q139 21 180 37q53 209 111 2601q-37 20 -213 41q-119 12 -180 12q-33 0 -54 -4l-24 86q286 16 557 25q266 4 381 8q172 -238 389 -512.5t627 -753.5q405 -483 630 -745q226 -267 234 -279q0 33 -8 664q-9 626 -21 938q-12 307 -61 536 q-70 9 -193 33q-123 21 -221 25l-25 77q148 -4 271 -4q123 -4 311 -12q205 8 311 12q107 0 234 4l-17 -77q-45 -9 -155.5 -33.5t-155.5 -32.5q-24 -61 -45 -369q-25 -311 -41 -794t-33 -991q-16 -512 -24 -791q-209 238 -492 561q-282 324 -569 660q-291 331 -688.5 802.5 t-581.5 696.5q4 -234 12 -598q5 -369 21 -815q16 -451 28.5 -664t28.5 -307q37 -16 221 -37q185 -24 226 -24l16 -82q-156 8 -303 12q-147 0 -319 4q-140 -4 -259 -4q-122 -4 -286 -12z" />
<glyph unicode="O" horiz-adv-x="3879" d="M209 1335q8 25 8 58q21 389 205 725q180 331 545 548q364 218 880 263q119 12 234 12q278 0 512 -66q332 -90 569 -274q234 -188 361 -451q127 -262 127 -589q0 -226 -41 -385q-82 -349 -304 -627q-225 -279 -577 -443q-352 -163 -791 -180h-77q-545 0 -910 213 q-389 230 -561 557q-172 328 -180 639zM696 1569q9 -74 13 -119q0 -45 4 -98q73 -508 397 -828q320 -323 713 -405q53 -4 94 -8q41 -9 106 -17q291 0 553 144q258 139 418 409q160 266 160 627q0 282 -90 544.5t-262 483.5t-406 348q-237 127 -524 127q-168 0 -295 -33 q-229 -53 -397 -172q-172 -123 -275 -274q-102 -156 -151 -340q-49 -189 -58 -389z" />
<glyph unicode="P" horiz-adv-x="2617" d="M193 -16l24 90q254 24 430 53q0 270 4 442l8 344q0 172 5 385v488q0 647 -17 958q-176 41 -438 58l-16 86h942h69q643 0 955 -144q323 -151 335 -479v-41q0 -389 -319 -651q-336 -275 -823 -356l16 102q385 90 512 331.5t127 471.5q0 155 -70 307q-69 147 -262 254 q-168 90 -442 90q-45 0 -90 -4q-13 -660 -25 -1528q8 -369 17 -602q4 -233 8 -512q467 -49 520 -53l25 -90q-230 8 -422 12q-193 0 -418 4q-172 -4 -320 -4q-147 -4 -335 -12z" />
<glyph unicode="Q" horiz-adv-x="3871" d="M209 1360q8 16 8 41q12 385 209 729q192 344 569 561q373 217 885 246q62 4 119 4q352 0 639 -86q332 -98 557 -291q225 -192 340 -450q115 -263 115 -562q0 -155 -41 -352q-62 -278 -197 -483q-135 -209 -283 -332q-151 -123 -319 -233q127 -185 352 -406t496 -446 q266 -230 278 -230l-94 -37q-119 13 -680 344q-565 328 -881 590q-253 -33 -475 -33q-463 0 -774 148q-463 221 -639 577q-176 353 -184 701zM672 1561q16 -115 16 -152q74 -528 406 -864q327 -340 692 -426q74 -17 254 -33q319 8 590 172q266 164 417 500q115 258 115 610 q0 98 -8 201q-16 221 -143 463q-127 237 -336 426q-213 184 -492 274q-168 53 -348 53q-123 0 -250 -24q-442 -82 -672 -434q-233 -357 -241 -766z" />
<glyph unicode="R" horiz-adv-x="3064" d="M193 -25l16 99q98 0 254 24q151 21 176 29q16 246 16 1290q0 1057 -16 1327q-127 21 -438 49l-8 78q233 4 438 8h536h201h33q1159 0 1184 -581q0 -213 -197 -447q-197 -233 -389 -331q233 -402 590 -914q352 -512 549 -708l-177 -33q-331 196 -1450 1478 q-208 -24 -393 -24q0 -639 25 -1192q41 -16 229 -37q189 -20 205 -24l16 -82q-139 8 -278 12q-144 0 -307 4q-775 -16 -815 -25zM1118 1450h33q315 0 594 131q291 139 344 524q4 25 4 49q0 213 -192 406q-213 209 -750 209h-16q0 -266 -9 -684q-8 -418 -8 -635z" />
<glyph unicode="S" horiz-adv-x="2265" d="M258 -418q21 99 57 504q25 291 25 590q0 115 -4 229l94 -24q0 -25 -4 -50q4 -118 29 -303q90 -217 270 -335.5t381 -126.5q225 12 397 155q168 144 168 365q0 381 -520 671q-725 418 -725 938v46q8 290 229 491q222 197 639 197q242 0 529 -74q32 119 73 336l95 8 q-95 -754 -95 -1118l-98 41q0 159 -12 311q-78 188 -230 279q-151 90 -331 90q-185 0 -320 -95q-135 -98 -160 -258q-4 -36 -4 -69q0 -152 111 -250q131 -123 471 -332q336 -213 512 -418q172 -209 172 -549v-118q-33 -398 -332 -586q-299 -193 -700 -193q-270 0 -537 99 q-12 -33 -86 -426z" />
<glyph unicode="T" horiz-adv-x="3056" d="M41 2114q53 569 53 1040q82 -16 99 -16q16 -242 24 -275q131 -8 287 -12q155 -8 344 -12q188 -9 336 -9q147 -4 319 -8q1024 17 1409 41q0 4 25 98q24 91 33 160l45 8q41 9 57 9q-29 -168 -66 -472q-36 -307 -69 -585q-49 24 -90 24q4 78 8 144v184v86q-62 70 -438 127 q-332 49 -566 49h-65q-8 -61 -25 -1024q17 -1470 25 -1544q328 -41 524 -53l17 -90q-107 16 -725 16q-553 0 -873 -16l25 82q106 12 155 20q49 4 185 20q135 13 180 21q20 766 20 1401q0 811 -20 1167q-791 0 -1057 -168q-20 -33 -49 -192q-33 -164 -41 -193l-41 -12 t-45 -16z" />
<glyph unicode="U" horiz-adv-x="3510" d="M176 2879q139 -4 258 -4q119 -4 340 -12q279 8 414 12q135 0 291 4l-25 -77q-49 -9 -168 -21q-119 -16 -192 -28q-70 -13 -70 -17q-16 -524 -16 -770q4 -184 8 -336v-397q0 -1147 831 -1147h17q430 4 618 274q184 267 197 758q8 201 8 602q0 471 -25 1024q-69 9 -184 25 q-119 16 -254 24l-33 86q131 0 209 -4t197 -8t291 -12q319 16 463 24l-21 -86q-254 -40 -291 -57q-4 -86 -4 -156q-4 -73 -12 -245v-713q0 -373 -8 -541q-25 -487 -316 -798.5t-803 -348.5q-57 -4 -114 -4q-484 0 -836 254q-393 283 -409 897q0 549 -9 783q0 778 -16 880 q-16 4 -139 29q-123 20 -180 29z" />
<glyph unicode="V" horiz-adv-x="3056" d="M-127 2879q119 -4 229 -4q111 -4 316 -12q672 16 749 16l-16 -77q-324 -25 -389 -66q188 -483 561 -1335q360 -823 381 -823q57 122 278 585q218 463 406 910q188 442 238 671q-189 25 -385 58l-17 77q160 -4 299 -4q135 -4 316 -12q196 8 274 12q78 0 168 4l-25 -77 q-147 -41 -241 -58q-95 -147 -381 -696q-287 -553 -598.5 -1188t-499.5 -1044q-29 49 -492 1052q-462 1000 -663 1422q-201 417 -238 454q-65 25 -127 37q-65 12 -127 21z" />
<glyph unicode="W" horiz-adv-x="4321" d="M-111 2879q127 -4 242 -4q111 -4 315 -12q656 16 705 16l-25 -77q-16 -9 -372 -58q65 -250 155 -590q86 -339 193 -737q106 -397 225 -770h8q209 504 434 1106q226 598 295 881q-69 12 -139 24q-70 8 -262 37l-16 90q131 -4 245 -4q111 -4 299 -12l369 12q119 0 258 4 l-16 -90q-238 -33 -328 -61l741 -2020l17 9v-5q16 0 270 898q266 958 291 1228q-45 9 -189 29q-147 20 -196 29l-17 77q148 -4 271 -4q119 -4 282 -12q213 8 308 12q90 0 204 4l-8 -77q-123 -13 -266 -66q-53 -57 -377 -979q-327 -926 -676 -1974q-114 274 -290 704 q-177 431 -267 660q-94 229 -213 541q-123 311 -217 544q-28 -102 -168 -458q-143 -357 -262 -660q-123 -303 -328 -803q-204 -499 -217 -528q-82 184 -274.5 827t-368.5 1220.5t-315 913.5q-123 25 -303 58z" />
<glyph unicode="X" horiz-adv-x="2904" d="M-94 -16l28 90q46 0 140 20q94 17 119 33q94 53 335 360q238 304 746 983q-37 37 -197 250q-159 213 -438 590q-283 377 -344 434q-29 13 -127 33q-98 16 -135 25l-17 77q115 -4 529 -24q205 8 344 12q135 4 217 8t188 4l-20 -77q-86 -9 -352 -58q176 -274 381 -569 q200 -295 258 -377q426 557 630 946q-114 25 -192 37q-82 12 -103 21l-16 77q127 -4 234 -4q106 -4 262 -12q196 8 282 12q82 0 181 4l-9 -77q-151 -37 -245 -58q-50 -16 -463.5 -503.5t-466.5 -577.5q147 -197 299 -406q147 -213 413 -589q267 -381 406 -570 q135 -192 172 -250l-168 -41q-94 62 -303 267t-516 553q-307 344 -590 716q-205 -290 -479 -741q-275 -450 -275 -483q78 -13 127 -21q50 -8 209 -32l17 -91q-185 9 -672 25q-98 -4 -180 -4q-86 -4 -209 -12z" />
<glyph unicode="Y" horiz-adv-x="2679" d="M-143 2879q139 -4 262 -4q123 -4 319 -12q635 16 688 25l-16 -86q-33 -9 -356 -58q364 -602 790 -1241q135 193 413.5 655.5t299.5 585.5q-49 4 -139 25q-90 16 -181 33l-16 77q115 -4 217 -4q98 -4 262 -12q508 16 537 16l-17 -77q-90 -13 -274 -58 q-78 -45 -487.5 -622.5t-511.5 -786.5l-17 -397q21 -778 33 -819q295 -37 393 -53l8 -82q-114 0 -753 16q-144 -4 -267 -4q-126 -4 -274 -12l12 82q344 45 369 61q16 98 16 713v286q-4 82 -8 168q0 45 -381 606.5t-618 843.5q-197 49 -287 49z" />
<glyph unicode="Z" horiz-adv-x="2945" d="M102 -33q50 45 402 516q348 471 872 1200q525 730 721 1012q-37 4 -110 4q-205 0 -680 -41q-648 -57 -746 -131q-29 0 -151 -479l-99 -16q33 163 58 340q20 172 41 417q20 246 28 476l99 -25q4 -86 8 -188q4 -103 8 -136v-61q438 -29 1102 -37q352 8 676 16q323 5 430 5 q-62 -82 -213 -283q-156 -205 -447 -602q-295 -402 -663.5 -914t-638.5 -897q90 0 139 -8q500 8 938 62q438 49 635 180q106 295 151 520l107 41q-12 -49 -119 -700q-106 -627 -106 -701v-8l-103 25q25 127 25 389q-66 32 -1249 49q-951 -17 -1115 -25z" />
<glyph unicode="[" horiz-adv-x="1434" d="M393 -487q8 135 8 680v1241v1183q-4 328 -8 549l873 25l-17 -103l-475 -41q-8 -254 -8 -376q-4 -127 -12 -439q8 -250 8 -880q0 -529 -8 -766q12 -774 28 -938q209 -25 492 -58l-33 -110q-176 8 -364.5 16t-483.5 17z" />
<glyph unicode="\" />
<glyph unicode="]" horiz-adv-x="1434" d="M160 -410q352 41 487 58q17 98 21 221t8 336v524t4 623q0 712 -4 1048q-8 332 -29 647l-463 41l-24 103l880 -25q-4 -217 -8 -700q-8 -488 -8 -1016q0 -1667 16 -1937q-295 -9 -479 -17q-188 -8 -368 -16z" />
<glyph unicode="^" />
<glyph unicode="_" horiz-adv-x="2048" d="M0 -311h2048v-209h-2048v209z" />
<glyph unicode="`" horiz-adv-x="3760" d="M1151 3482q53 106 98 192q41 86 54 127q28 -24 401 -262t418 -258l-49 -127q-807 328 -914 328h-8z" />
<glyph unicode="a" horiz-adv-x="2920" d="M-233 -25l16 91q16 4 172 28q156 25 180 33q37 45 262 614q221 566 451 1176q229 606 311 827q-29 29 -319 58l-9 86q78 -4 213 -9q136 -8 381 -16q521 16 639 25l-8 -86q-274 -41 -311 -58q147 -467 348 -1020q201 -557 385 -1019.5t258 -577.5q4 -4 172 -29 q164 -24 180 -24l17 -90l-705 16q-90 -4 -237 -4q-148 -4 -271 -4q-123 -4 -163 -8l24 90q135 4 279 28l135 25q-17 66 -201 594q-188 524 -229 606q-426 0 -946 -45q-41 -90 -168 -598q-119 -475 -119 -549v-8q164 -53 344 -53l24 -90q-196 16 -544 16q-475 0 -561 -25z M840 1470q78 -4 385 -8q303 -8 479 -12q0 16 -90 283q-94 278 -189 553q-98 270 -139 393h-4q-16 -37 -74 -197q-57 -160 -139 -381t-147.5 -405.5t-81.5 -225.5z" />
<glyph unicode="b" horiz-adv-x="2802" d="M193 -16l16 82q49 0 221 24q168 21 201 37q33 0 33 1327q0 381 -9 815q-12 430 -24 475q-33 13 -414 41l-24 78q20 0 507 16q488 17 701 17q356 0 614 -107q258 -110 275 -405q4 -33 4 -66q0 -258 -180 -442q-205 -213 -459 -324v-8q282 -53 471 -176q184 -127 278 -291 q90 -168 90 -348q0 -192 -102 -369q-106 -176 -303 -282q-201 -107 -471 -111q-33 0 -279 8q-245 9 -684 17q-135 -8 -462 -8zM1106 1417q0 -987 45 -1233q147 -86 344 -98q225 0 385 131q160 127 160 377q0 233 -131 430q-135 197 -353 307q-180 90 -376 90q-37 0 -74 -4z M1106 1544q397 0 561 205q164 201 164 442q0 246 -152 422q-151 172 -397 172q-65 0 -164 -16q-4 -16 -4 -303q-4 -291 -4 -541q-4 -250 -4 -381z" />
<glyph unicode="c" horiz-adv-x="3314" d="M221 1425q0 336 180 664q205 373 643 610q435 238 1053 238q414 0 856 -107l78 361l98 16q-24 -123 -57 -647q-33 -475 -33 -594v-20l-94 28q0 156 -25 344q-24 82 -188 209t-414 209q-184 57 -372 57q-70 0 -140 -8q-581 -65 -839 -426q-254 -352 -254 -725v-24 q12 -459 233 -795q217 -340 574 -512q352 -176 778 -184q491 12 909 233l-53 -176q-205 -119 -496 -184q-295 -66 -626 -66q-701 0 -1221 340q-524 336 -586 1053q-4 53 -4 106z" />
<glyph unicode="d" horiz-adv-x="3846" d="M193 -16l16 82q274 28 438 61q17 655 17 1249q0 439 -5 672q-4 233 -20 688q-66 25 -438 66l-8 77q147 -4 270 -4q119 -4 291 -12q254 4 458 8h508h414q451 0 803 -159q348 -160 536 -435q185 -278 185 -598q0 -520 -299 -897q-299 -376 -774.5 -573t-991.5 -217 q-1056 0 -1400 -8zM1126 1282q17 -721 33 -1057q209 -69 479 -82q643 9 1110 426q398 357 398 885q0 86 -8 176q-33 271 -148 471q-119 201 -319 344q-201 140 -476 213q-274 70 -610 70q-201 0 -418 -25q-28 -749 -41 -1421z" />
<glyph unicode="e" horiz-adv-x="2609" d="M193 -25l24 91q275 20 422 53q25 1106 25 1491q0 622 -25 1126q-123 29 -430 66l-16 77q208 -4 389 -4q180 -4 499 -12q992 16 1049 33q4 4 16 82q8 78 13 110l98 17q-21 -135 -49 -492q-33 -356 -41 -364l8 8l-86 33v286q-33 74 -360 127q-328 50 -570 50 q-4 -132 -8 -320q-8 -192 -12 -385q-4 -197 -4 -471q704 20 847 70q33 94 41 176l91 8q-13 -53 -62 -401q-53 -349 -53 -365l-78 33q4 0 8 24q0 29 4 78q0 49 4 107v61q-184 94 -802 94q0 -86 -9 -151q4 -189 21 -570q12 -385 12 -630q774 12 983 147q29 74 90 356l95 25 q-111 -594 -136 -942l-86 16v246q-37 12 -331 25q-299 8 -861 16q-569 -16 -720 -25z" />
<glyph unicode="f" horiz-adv-x="2609" d="M193 -25l16 91q0 4 209 24q205 21 229 37q17 1286 17 1393q0 233 -17 1224q-172 29 -430 58l-24 77l1007 -16q979 16 1016 25q8 32 33 155q20 123 24 131l86 25q-24 -111 -45 -500q-24 -393 -24 -508l-99 33q0 262 -16 328q-66 82 -426 139q-360 53 -582 53 q-28 -258 -41 -966q9 -82 9 -226q671 0 864 66l57 237l86 9q-20 -168 -41 -484q-20 -315 -20 -430l-90 25q0 86 -25 344q-24 29 -180 57q-160 29 -340 41q-135 8 -242 8h-69q0 -929 32 -1306q33 -4 136 -17q102 -12 176 -20q69 -12 139 -16l12 -91l-622 17q-119 -4 -308 -4 q-188 -4 -335 -4q-148 -4 -172 -9z" />
<glyph unicode="g" horiz-adv-x="3703" d="M225 1368v41q0 332 172 672q185 360 615 606q430 242 1093 242q402 0 893 -99q74 353 74 377l94 25q-16 -107 -37 -459q-20 -352 -24 -614q8 -70 8 -193l-98 49q0 160 -45 369q-103 127 -263 217q-159 90 -348 139q-192 45 -405 45q-553 0 -856 -299q-373 -344 -385 -868 q4 -401 205 -754q196 -352 532 -565q332 -213 725 -225q197 4 377 57q143 41 143 49q0 4 -8 4q16 205 16 471q0 275 -16 480q-45 4 -201 24q-159 17 -213 25l-24 82q139 0 737 -17q442 17 573 17l-16 -82q-143 -8 -360 -49q-9 -33 -25 -471q16 -558 16 -598 q-626 -140 -1093 -140q-623 0 -1041 209q-422 205 -614 533q-193 323 -201 700z" />
<glyph unicode="h" horiz-adv-x="3969" d="M193 -16l24 82q254 24 430 61q8 418 8 1208q0 946 -8 1401q-115 37 -422 57l-32 95q81 0 167 -4.5t177 -4.5q86 -4 176 -8t176 -8q602 16 696 25l-24 -86q-91 -9 -242.5 -37.5t-159.5 -28.5q-24 -405 -24 -1143h225h287h553q208 9 630 9v430q0 393 -20 712 q-107 17 -189 33q-81 12 -213 25l-24 86q33 -9 672 -25q303 8 438 12q135 0 274 4l-24 -77q-123 -21 -414 -58q-16 -323 -33 -1335q8 -430 17 -704q4 -275 12 -439q4 -143 8 -143v4q103 -25 225 -37q123 -12 193 -24l25 -82q-54 4 -189 8q-135 0 -291 4q-159 0 -258 4 q-172 -4 -319 -4q-148 -4 -336 -12l24 82q304 36 402 61q20 168 20 1327q-143 0 -901 -37q-758 -41 -803 -57q4 -127 9 -393q0 -267 12 -488q12 -225 20 -360q66 -13 402 -53l16 -91q-49 5 -704 25q-201 -4 -377 -4q-180 -4 -311 -12z" />
<glyph unicode="i" horiz-adv-x="1798" d="M193 -16l16 82q24 4 70 8q40 4 184 24q143 21 184 29q17 287 17 1192q0 827 -17 1417q-45 17 -430 66l-24 77q118 0 213 -4q90 -4 245 -8q152 -4 381 -12q389 16 578 24l-25 -86l-434 -57q-8 -70 -25 -1007q4 -250 8.5 -500t8.5 -459q0 -213 4 -389q4 -180 4 -254 q78 -16 246 -37q164 -24 188 -24l25 -82q-58 4 -197 8q-139 0 -303 4q-164 0 -262 4q-94 -4 -238 -4q-147 -4 -266 -4q-119 -4 -151 -8z" />
<glyph unicode="j" horiz-adv-x="1720" d="M86 2879q217 -4 401 -4q181 -4 435 -12q270 8 401 12q127 0 279 4l-9 -77l-184 -25q-197 -29 -258 -33q-8 -225 -12 -614t-13 -905q0 -922 -8 -1008q-33 -287 -205 -569q-172 -287 -680 -656l-81 33q217 270 294 389q78 115 140 344q57 230 69 643q17 521 17 1303 q0 709 -25 1032q-246 37 -545 66z" />
<glyph unicode="k" horiz-adv-x="3281" d="M193 -16l16 82q418 49 438 61q17 418 17 999q0 570 -5 889q-4 316 -20 729q-86 9 -430 58l-16 77q172 -4 315 -4q143 -4 381 -12q246 8 389 12q139 0 307 4l-8 -77q-156 -21 -287 -37q-135 -21 -139 -37q-8 -197 -25 -1487q9 -471 17 -745q4 -275 8 -353q61 -37 471 -77 l8 -91q-53 5 -672 25q-704 -16 -765 -16zM1126 1319v192q353 295 807 701q455 405 525 532q-263 49 -316 58q0 4 -12 77q106 0 582 -16q53 4 151 8q94 0 189 4q94 0 147 4l-33 -77q-147 -25 -254 -49q-213 -127 -1114 -889q107 -181 705 -934q594 -754 839 -1004l-135 -45 q-123 45 -450 336q-328 287 -766 725q-443 434 -598 594q-54 -33 -140 -106q-90 -78 -127 -111z" />
<glyph unicode="l" horiz-adv-x="2417" d="M193 -16l16 82q315 24 438 53q8 217 8 1163q0 1204 -8 1462q-74 9 -176 25q-106 16 -262 33l-16 77q188 -4 344 -4q155 -4 376 -12q287 8 430 12q144 0 312 4l-17 -77q-196 -25 -266 -37q-69 -12 -221 -29q-8 -61 -25 -1225q9 -696 17 -1040q4 -344 8 -344h33 q315 0 561 66q262 65 389 151q57 139 147 455l103 24q-41 -110 -123 -622q-86 -516 -94 -729l-94 24q0 74 8 233.5t8 245.5q-160 5 -324 9q-168 0 -344 4q-180 4 -356 8t-336 4q-156 -4 -287 -4q-135 -4 -249 -12z" />
<glyph unicode="m" horiz-adv-x="4346" d="M-8 -16l33 82q20 8 122 24q99 12 164 29q45 131 283 1159q233 1024 319 1466q-151 0 -409 58l-25 77q119 -4 234 -4q114 -4 368 -12q271 8 381 12q111 0 226 4l-17 -77q-41 -4 -164 -33q-110 -25 -139 -25h-8q156 -475 450 -1257q287 -766 304 -766q28 45 380 889 q353 839 451 1126q-111 45 -283 57l-16 86q152 -4 283 -4q131 -4 336 -12q221 8 311 12q90 0 192 4l-16 -86h-4q-37 0 -340 -49q74 -344 233 -1159q156 -815 312 -1458q53 -21 336 -61l24 -91q-98 9 -680 25q-500 -16 -663 -16l16 82q94 16 229 28q131 12 217 25 q0 61 -41 274q-40 213 -180 946q-139 734 -196 1078h-17l-1036 -2458q-123 320 -324 840q-204 516 -315 819q-115 299 -299 807h-16q-336 -1798 -344 -2216l16 -82q74 -21 360 -61l17 -82q-78 0 -627 16q-119 -4 -221 -4q-103 -4 -217 -12z" />
<glyph unicode="n" horiz-adv-x="3719" d="M160 -16l16 82q25 4 164 24q139 21 180 37q53 209 111 2601q-37 20 -213 41q-119 12 -180 12q-33 0 -54 -4l-24 86q286 16 557 25q266 4 381 8q172 -238 389 -512.5t627 -753.5q405 -483 630 -745q226 -267 234 -279q0 33 -8 664q-9 626 -21 938q-12 307 -61 536 q-70 9 -193 33q-123 21 -221 25l-25 77q148 -4 271 -4q123 -4 311 -12q205 8 311 12q107 0 234 4l-17 -77q-45 -9 -155.5 -33.5t-155.5 -32.5q-24 -61 -45 -369q-25 -311 -41 -794t-33 -991q-16 -512 -24 -791q-209 238 -492 561q-282 324 -569 660q-291 331 -688.5 802.5 t-581.5 696.5q4 -234 12 -598q5 -369 21 -815q16 -451 28.5 -664t28.5 -307q37 -16 221 -37q185 -24 226 -24l16 -82q-156 8 -303 12q-147 0 -319 4q-140 -4 -259 -4q-122 -4 -286 -12z" />
<glyph unicode="o" horiz-adv-x="3879" d="M209 1335q8 25 8 58q21 389 205 725q180 331 545 548q364 218 880 263q119 12 234 12q278 0 512 -66q332 -90 569 -274q234 -188 361 -451q127 -262 127 -589q0 -226 -41 -385q-82 -349 -304 -627q-225 -279 -577 -443q-352 -163 -791 -180h-77q-545 0 -910 213 q-389 230 -561 557q-172 328 -180 639zM696 1569q9 -74 13 -119q0 -45 4 -98q73 -508 397 -828q320 -323 713 -405q53 -4 94 -8q41 -9 106 -17q291 0 553 144q258 139 418 409q160 266 160 627q0 282 -90 544.5t-262 483.5t-406 348q-237 127 -524 127q-168 0 -295 -33 q-229 -53 -397 -172q-172 -123 -275 -274q-102 -156 -151 -340q-49 -189 -58 -389z" />
<glyph unicode="p" horiz-adv-x="2617" d="M193 -16l24 90q254 24 430 53q0 270 4 442l8 344q0 172 5 385v488q0 647 -17 958q-176 41 -438 58l-16 86h942h69q643 0 955 -144q323 -151 335 -479v-41q0 -389 -319 -651q-336 -275 -823 -356l16 102q385 90 512 331.5t127 471.5q0 155 -70 307q-69 147 -262 254 q-168 90 -442 90q-45 0 -90 -4q-13 -660 -25 -1528q8 -369 17 -602q4 -233 8 -512q467 -49 520 -53l25 -90q-230 8 -422 12q-193 0 -418 4q-172 -4 -320 -4q-147 -4 -335 -12z" />
<glyph unicode="q" horiz-adv-x="3871" d="M209 1360q8 16 8 41q12 385 209 729q192 344 569 561q373 217 885 246q62 4 119 4q352 0 639 -86q332 -98 557 -291q225 -192 340 -450q115 -263 115 -562q0 -155 -41 -352q-62 -278 -197 -483q-135 -209 -283 -332q-151 -123 -319 -233q127 -185 352 -406t496 -446 q266 -230 278 -230l-94 -37q-119 13 -680 344q-565 328 -881 590q-253 -33 -475 -33q-463 0 -774 148q-463 221 -639 577q-176 353 -184 701zM672 1561q16 -115 16 -152q74 -528 406 -864q327 -340 692 -426q74 -17 254 -33q319 8 590 172q266 164 417 500q115 258 115 610 q0 98 -8 201q-16 221 -143 463q-127 237 -336 426q-213 184 -492 274q-168 53 -348 53q-123 0 -250 -24q-442 -82 -672 -434q-233 -357 -241 -766z" />
<glyph unicode="r" horiz-adv-x="3064" d="M193 -25l16 99q98 0 254 24q151 21 176 29q16 246 16 1290q0 1057 -16 1327q-127 21 -438 49l-8 78q233 4 438 8h536h201h33q1159 0 1184 -581q0 -213 -197 -447q-197 -233 -389 -331q233 -402 590 -914q352 -512 549 -708l-177 -33q-331 196 -1450 1478 q-208 -24 -393 -24q0 -639 25 -1192q41 -16 229 -37q189 -20 205 -24l16 -82q-139 8 -278 12q-144 0 -307 4q-775 -16 -815 -25zM1118 1450h33q315 0 594 131q291 139 344 524q4 25 4 49q0 213 -192 406q-213 209 -750 209h-16q0 -266 -9 -684q-8 -418 -8 -635z" />
<glyph unicode="s" horiz-adv-x="2265" d="M258 -418q21 99 57 504q25 291 25 590q0 115 -4 229l94 -24q0 -25 -4 -50q4 -118 29 -303q90 -217 270 -335.5t381 -126.5q225 12 397 155q168 144 168 365q0 381 -520 671q-725 418 -725 938v46q8 290 229 491q222 197 639 197q242 0 529 -74q32 119 73 336l95 8 q-95 -754 -95 -1118l-98 41q0 159 -12 311q-78 188 -230 279q-151 90 -331 90q-185 0 -320 -95q-135 -98 -160 -258q-4 -36 -4 -69q0 -152 111 -250q131 -123 471 -332q336 -213 512 -418q172 -209 172 -549v-118q-33 -398 -332 -586q-299 -193 -700 -193q-270 0 -537 99 q-12 -33 -86 -426z" />
<glyph unicode="t" horiz-adv-x="3056" d="M41 2114q53 569 53 1040q82 -16 99 -16q16 -242 24 -275q131 -8 287 -12q155 -8 344 -12q188 -9 336 -9q147 -4 319 -8q1024 17 1409 41q0 4 25 98q24 91 33 160l45 8q41 9 57 9q-29 -168 -66 -472q-36 -307 -69 -585q-49 24 -90 24q4 78 8 144v184v86q-62 70 -438 127 q-332 49 -566 49h-65q-8 -61 -25 -1024q17 -1470 25 -1544q328 -41 524 -53l17 -90q-107 16 -725 16q-553 0 -873 -16l25 82q106 12 155 20q49 4 185 20q135 13 180 21q20 766 20 1401q0 811 -20 1167q-791 0 -1057 -168q-20 -33 -49 -192q-33 -164 -41 -193l-41 -12 t-45 -16z" />
<glyph unicode="u" horiz-adv-x="3510" d="M176 2879q139 -4 258 -4q119 -4 340 -12q279 8 414 12q135 0 291 4l-25 -77q-49 -9 -168 -21q-119 -16 -192 -28q-70 -13 -70 -17q-16 -524 -16 -770q4 -184 8 -336v-397q0 -1147 831 -1147h17q430 4 618 274q184 267 197 758q8 201 8 602q0 471 -25 1024q-69 9 -184 25 q-119 16 -254 24l-33 86q131 0 209 -4t197 -8t291 -12q319 16 463 24l-21 -86q-254 -40 -291 -57q-4 -86 -4 -156q-4 -73 -12 -245v-713q0 -373 -8 -541q-25 -487 -316 -798.5t-803 -348.5q-57 -4 -114 -4q-484 0 -836 254q-393 283 -409 897q0 549 -9 783q0 778 -16 880 q-16 4 -139 29q-123 20 -180 29z" />
<glyph unicode="v" horiz-adv-x="3056" d="M-127 2879q119 -4 229 -4q111 -4 316 -12q672 16 749 16l-16 -77q-324 -25 -389 -66q188 -483 561 -1335q360 -823 381 -823q57 122 278 585q218 463 406 910q188 442 238 671q-189 25 -385 58l-17 77q160 -4 299 -4q135 -4 316 -12q196 8 274 12q78 0 168 4l-25 -77 q-147 -41 -241 -58q-95 -147 -381 -696q-287 -553 -598.5 -1188t-499.5 -1044q-29 49 -492 1052q-462 1000 -663 1422q-201 417 -238 454q-65 25 -127 37q-65 12 -127 21z" />
<glyph unicode="w" horiz-adv-x="4321" d="M-111 2879q127 -4 242 -4q111 -4 315 -12q656 16 705 16l-25 -77q-16 -9 -372 -58q65 -250 155 -590q86 -339 193 -737q106 -397 225 -770h8q209 504 434 1106q226 598 295 881q-69 12 -139 24q-70 8 -262 37l-16 90q131 -4 245 -4q111 -4 299 -12l369 12q119 0 258 4 l-16 -90q-238 -33 -328 -61l741 -2020l17 9v-5q16 0 270 898q266 958 291 1228q-45 9 -189 29q-147 20 -196 29l-17 77q148 -4 271 -4q119 -4 282 -12q213 8 308 12q90 0 204 4l-8 -77q-123 -13 -266 -66q-53 -57 -377 -979q-327 -926 -676 -1974q-114 274 -290 704 q-177 431 -267 660q-94 229 -213 541q-123 311 -217 544q-28 -102 -168 -458q-143 -357 -262 -660q-123 -303 -328 -803q-204 -499 -217 -528q-82 184 -274.5 827t-368.5 1220.5t-315 913.5q-123 25 -303 58z" />
<glyph unicode="x" horiz-adv-x="2904" d="M-94 -16l28 90q46 0 140 20q94 17 119 33q94 53 335 360q238 304 746 983q-37 37 -197 250q-159 213 -438 590q-283 377 -344 434q-29 13 -127 33q-98 16 -135 25l-17 77q115 -4 529 -24q205 8 344 12q135 4 217 8t188 4l-20 -77q-86 -9 -352 -58q176 -274 381 -569 q200 -295 258 -377q426 557 630 946q-114 25 -192 37q-82 12 -103 21l-16 77q127 -4 234 -4q106 -4 262 -12q196 8 282 12q82 0 181 4l-9 -77q-151 -37 -245 -58q-50 -16 -463.5 -503.5t-466.5 -577.5q147 -197 299 -406q147 -213 413 -589q267 -381 406 -570 q135 -192 172 -250l-168 -41q-94 62 -303 267t-516 553q-307 344 -590 716q-205 -290 -479 -741q-275 -450 -275 -483q78 -13 127 -21q50 -8 209 -32l17 -91q-185 9 -672 25q-98 -4 -180 -4q-86 -4 -209 -12z" />
<glyph unicode="y" horiz-adv-x="2679" d="M-143 2879q139 -4 262 -4q123 -4 319 -12q635 16 688 25l-16 -86q-33 -9 -356 -58q364 -602 790 -1241q135 193 413.5 655.5t299.5 585.5q-49 4 -139 25q-90 16 -181 33l-16 77q115 -4 217 -4q98 -4 262 -12q508 16 537 16l-17 -77q-90 -13 -274 -58 q-78 -45 -487.5 -622.5t-511.5 -786.5l-17 -397q21 -778 33 -819q295 -37 393 -53l8 -82q-114 0 -753 16q-144 -4 -267 -4q-126 -4 -274 -12l12 82q344 45 369 61q16 98 16 713v286q-4 82 -8 168q0 45 -381 606.5t-618 843.5q-197 49 -287 49z" />
<glyph unicode="z" horiz-adv-x="2945" d="M102 -33q50 45 402 516q348 471 872 1200q525 730 721 1012q-37 4 -110 4q-205 0 -680 -41q-648 -57 -746 -131q-29 0 -151 -479l-99 -16q33 163 58 340q20 172 41 417q20 246 28 476l99 -25q4 -86 8 -188q4 -103 8 -136v-61q438 -29 1102 -37q352 8 676 16q323 5 430 5 q-62 -82 -213 -283q-156 -205 -447 -602q-295 -402 -663.5 -914t-638.5 -897q90 0 139 -8q500 8 938 62q438 49 635 180q106 295 151 520l107 41q-12 -49 -119 -700q-106 -627 -106 -701v-8l-103 25q25 127 25 389q-66 32 -1249 49q-951 -17 -1115 -25z" />
<glyph unicode="{" horiz-adv-x="1434" d="M119 1450l41 94q286 0 286 311q0 99 -24.5 312t-28.5 311q8 33 8 82q21 332 267 467q241 131 598 172l-25 -119q-217 -16 -340 -119q-127 -106 -127 -426q0 -86 8 -237q9 -152 9 -225q0 -201 -70 -336q-74 -135 -283 -250q213 -98 291 -238q78 -139 78 -352 q0 -94 -29 -393q-28 -303 -33 -422v-33q0 -242 181 -348q188 -119 331 -119h17l-49 -102q-324 16 -586 192q-266 172 -270 504v25q0 155 49 446q53 311 53 410q0 373 -352 393z" />
<glyph unicode="|" />
<glyph unicode="}" horiz-adv-x="1434" d="M160 -426q192 20 364 131t172 381q0 176 -37 479q-36 299 -36 348q8 197 90 336q78 135 278 238q-143 82 -217 168q-78 82 -106 180q-29 94 -37 229q8 99 16 193q4 94 8 131v147v17q0 295 -118 401q-127 111 -344 127l-17 119q828 -90 856 -664q4 -41 4 -94 q0 -123 -20 -295q-33 -245 -33 -282q8 -160 74 -238q65 -82 225 -82l29 -94q-340 -33 -353 -385q5 -90 62 -410q53 -303 53 -487v-25q-12 -319 -266 -475q-258 -155 -590 -196z" />
<glyph unicode="~" />
<glyph unicode="&#xad;" horiz-adv-x="1839" d="M287 1303l32 335h1242l-58 -196q-295 -4 -700 -53q-406 -54 -516 -86z" />
<glyph unicode="&#x2000;" horiz-adv-x="1900" />
<glyph unicode="&#x2001;" horiz-adv-x="3801" />
<glyph unicode="&#x2002;" horiz-adv-x="1900" />
<glyph unicode="&#x2003;" horiz-adv-x="3801" />
<glyph unicode="&#x2004;" horiz-adv-x="1267" />
<glyph unicode="&#x2005;" horiz-adv-x="950" />
<glyph unicode="&#x2006;" horiz-adv-x="633" />
<glyph unicode="&#x2007;" horiz-adv-x="633" />
<glyph unicode="&#x2008;" horiz-adv-x="475" />
<glyph unicode="&#x2009;" horiz-adv-x="760" />
<glyph unicode="&#x200a;" horiz-adv-x="211" />
<glyph unicode="&#x2010;" horiz-adv-x="1839" d="M287 1303l32 335h1242l-58 -196q-295 -4 -700 -53q-406 -54 -516 -86z" />
<glyph unicode="&#x2011;" horiz-adv-x="1839" d="M287 1303l32 335h1242l-58 -196q-295 -4 -700 -53q-406 -54 -516 -86z" />
<glyph unicode="&#x2012;" horiz-adv-x="1839" d="M287 1303l32 335h1242l-58 -196q-295 -4 -700 -53q-406 -54 -516 -86z" />
<glyph unicode="&#x2013;" horiz-adv-x="2613" d="M287 1303l51 335h1997l-93 -196q-474 -4 -1126 -53q-652 -54 -829 -86z" />
<glyph unicode="&#x2014;" horiz-adv-x="4661" d="M287 1303l103 335h3993l-186 -196q-949 -4 -2251 -53q-1305 -54 -1659 -86z" />
<glyph unicode="&#x202f;" horiz-adv-x="760" />
<glyph unicode="&#x205f;" horiz-adv-x="950" />
</font>
</defs>
</svg>
